<svg width="312" height="48" viewBox="0 0 312 48" fill="none" xmlns="http://www.w3.org/2000/svg">
<rect x="0.5" y="0.5" width="311" height="47" rx="9.5" fill="white"/>
<rect x="0.5" y="0.5" width="311" height="47" rx="9.5" stroke="#A8A8A8"/>
<path d="M17.7614 31V16.4545H26.483V18.017H19.5227V22.9318H25.8295V24.4943H19.5227V31H17.7614ZM29.2724 31V20.0909H30.9485V31H29.2724ZM30.1246 18.2727C29.7979 18.2727 29.5162 18.1615 29.2795 17.9389C29.0475 17.7164 28.9315 17.4489 28.9315 17.1364C28.9315 16.8239 29.0475 16.5563 29.2795 16.3338C29.5162 16.1113 29.7979 16 30.1246 16C30.4513 16 30.7307 16.1113 30.9627 16.3338C31.1995 16.5563 31.3178 16.8239 31.3178 17.1364C31.3178 17.4489 31.1995 17.7164 30.9627 17.9389C30.7307 18.1615 30.4513 18.2727 30.1246 18.2727ZM35.6946 24.4375V31H34.0185V20.0909H35.6378V21.7955H35.7798C36.0355 21.2415 36.4238 20.7964 36.9446 20.4602C37.4654 20.1193 38.1378 19.9489 38.9616 19.9489C39.7003 19.9489 40.3466 20.1004 40.9006 20.4034C41.4545 20.7017 41.8854 21.1562 42.1932 21.767C42.5009 22.3731 42.6548 23.1402 42.6548 24.0682V31H40.9787V24.1818C40.9787 23.3248 40.7562 22.6572 40.3111 22.179C39.866 21.696 39.2552 21.4545 38.4787 21.4545C37.9437 21.4545 37.4654 21.5705 37.044 21.8026C36.6274 22.0346 36.2983 22.3731 36.0568 22.8182C35.8153 23.2633 35.6946 23.803 35.6946 24.4375ZM49.837 31.2273C48.9279 31.2273 48.1254 30.9976 47.4293 30.5384C46.7333 30.0743 46.1888 29.4209 45.7958 28.5781C45.4028 27.7306 45.2063 26.7292 45.2063 25.5739C45.2063 24.428 45.4028 23.4337 45.7958 22.5909C46.1888 21.7481 46.7357 21.0971 47.4364 20.6378C48.1372 20.1785 48.9469 19.9489 49.8654 19.9489C50.5756 19.9489 51.1367 20.0672 51.5487 20.304C51.9653 20.536 52.2826 20.8011 52.5004 21.0994C52.7229 21.393 52.8957 21.6345 53.0188 21.8239H53.1609V16.4545H54.837V31H53.2177V29.3239H53.0188C52.8957 29.5227 52.7205 29.7737 52.4933 30.0767C52.266 30.375 51.9416 30.6425 51.5202 30.8793C51.0988 31.1113 50.5378 31.2273 49.837 31.2273ZM50.0643 29.7216C50.7366 29.7216 51.3048 29.5464 51.7688 29.196C52.2328 28.8409 52.5856 28.3509 52.8271 27.7259C53.0685 27.0961 53.1893 26.3693 53.1893 25.5455C53.1893 24.7311 53.0709 24.0185 52.8342 23.4077C52.5974 22.7921 52.247 22.3139 51.783 21.973C51.319 21.6274 50.7461 21.4545 50.0643 21.4545C49.354 21.4545 48.7622 21.6368 48.2887 22.0014C47.82 22.3613 47.4672 22.8513 47.2305 23.4716C46.9985 24.0871 46.8825 24.7784 46.8825 25.5455C46.8825 26.322 47.0008 27.0275 47.2376 27.6619C47.479 28.2917 47.8342 28.7936 48.3029 29.1676C48.7764 29.5369 49.3635 29.7216 50.0643 29.7216ZM63.1964 18.017V16.4545H74.1055V18.017H69.5316V31H67.7702V18.017H63.1964ZM78.3224 31.2557C77.6312 31.2557 77.0038 31.1255 76.4403 30.8651C75.8769 30.5999 75.4295 30.2188 75.098 29.7216C74.7666 29.2197 74.6009 28.6136 74.6009 27.9034C74.6009 27.2784 74.724 26.7718 74.9702 26.3835C75.2164 25.9905 75.5455 25.6828 75.9574 25.4602C76.3693 25.2377 76.8239 25.072 77.321 24.9631C77.8229 24.8494 78.3272 24.7595 78.8338 24.6932C79.4967 24.608 80.0341 24.544 80.446 24.5014C80.8627 24.4541 81.1657 24.3759 81.3551 24.267C81.5492 24.1581 81.6463 23.9687 81.6463 23.6989V23.642C81.6463 22.9413 81.4545 22.3968 81.071 22.0085C80.6922 21.6203 80.117 21.4261 79.3452 21.4261C78.545 21.4261 77.9176 21.6013 77.4631 21.9517C77.0085 22.3021 76.6889 22.6761 76.5043 23.0739L74.9134 22.5057C75.1974 21.8428 75.5762 21.3267 76.0497 20.9574C76.5279 20.5833 77.0488 20.3229 77.6122 20.1761C78.1804 20.0246 78.7391 19.9489 79.2884 19.9489C79.6387 19.9489 80.0412 19.9915 80.4957 20.0767C80.955 20.1572 81.3977 20.3253 81.8239 20.581C82.2547 20.8366 82.6122 21.2225 82.8963 21.7386C83.1804 22.2547 83.3224 22.946 83.3224 23.8125V31H81.6463V29.5227H81.5611C81.4474 29.7595 81.258 30.0128 80.9929 30.2827C80.7277 30.5526 80.375 30.7822 79.9347 30.9716C79.4943 31.161 78.9569 31.2557 78.3224 31.2557ZM78.5781 29.75C79.241 29.75 79.7997 29.6198 80.2543 29.3594C80.7135 29.099 81.0592 28.7628 81.2912 28.3509C81.5279 27.9389 81.6463 27.5057 81.6463 27.0511V25.517C81.5753 25.6023 81.419 25.6804 81.1776 25.7514C80.9408 25.8177 80.6662 25.8769 80.3537 25.929C80.0459 25.9763 79.7453 26.0189 79.4517 26.0568C79.1629 26.09 78.9285 26.1184 78.7486 26.142C78.313 26.1989 77.9058 26.2912 77.527 26.419C77.1529 26.5421 76.8499 26.7292 76.6179 26.9801C76.3906 27.2263 76.277 27.5625 76.277 27.9886C76.277 28.571 76.4924 29.0114 76.9233 29.3097C77.3589 29.6032 77.9105 29.75 78.5781 29.75ZM94.109 22.5341L92.6033 22.9602C92.5086 22.7093 92.369 22.4654 92.1843 22.2287C92.0044 21.9872 91.7582 21.7884 91.4457 21.6321C91.1332 21.4759 90.7331 21.3977 90.2454 21.3977C89.5778 21.3977 89.0214 21.5516 88.5763 21.8594C88.136 22.1624 87.9158 22.5483 87.9158 23.017C87.9158 23.4337 88.0674 23.7628 88.3704 24.0043C88.6734 24.2457 89.1469 24.447 89.7908 24.608L91.4102 25.0057C92.3855 25.2424 93.1123 25.6046 93.5906 26.0923C94.0688 26.5753 94.3079 27.1979 94.3079 27.9602C94.3079 28.5852 94.128 29.1439 93.7681 29.6364C93.413 30.1288 92.9158 30.517 92.2766 30.8011C91.6374 31.0852 90.8941 31.2273 90.0465 31.2273C88.9338 31.2273 88.0129 30.9858 87.2837 30.5028C86.5546 30.0199 86.0929 29.3144 85.8988 28.3864L87.4897 27.9886C87.6412 28.5758 87.9277 29.0161 88.3491 29.3097C88.7752 29.6032 89.3316 29.75 90.0181 29.75C90.7994 29.75 91.4196 29.5843 91.8789 29.2528C92.3429 28.9167 92.5749 28.5142 92.5749 28.0455C92.5749 27.6667 92.4424 27.3494 92.1772 27.0938C91.9121 26.8333 91.5049 26.6392 90.9556 26.5114L89.1374 26.0852C88.1384 25.8485 87.4045 25.4815 86.9357 24.9844C86.4717 24.4825 86.2397 23.8551 86.2397 23.1023C86.2397 22.4867 86.4125 21.9422 86.7582 21.4688C87.1085 20.9953 87.5844 20.6236 88.1857 20.3537C88.7918 20.0838 89.4783 19.9489 90.2454 19.9489C91.3249 19.9489 92.1725 20.1856 92.788 20.6591C93.4083 21.1326 93.8486 21.7576 94.109 22.5341ZM98.3935 27.0227L98.3651 24.9489H98.706L103.479 20.0909H105.553L100.467 25.233H100.325L98.3935 27.0227ZM96.831 31V16.4545H98.5071V31H96.831ZM103.763 31L99.5014 25.6023L100.695 24.4375L105.893 31H103.763Z" fill="#D1D1D1"/>
<path d="M248 8.5V39.5" stroke="#D1D1D1"/>
<mask id="mask0_75609_19829" style="mask-type:alpha" maskUnits="userSpaceOnUse" x="264" y="8" width="32" height="32">
<rect x="264" y="8" width="32" height="32" fill="#D9D9D9"/>
</mask>
<g mask="url(#mask0_75609_19829)">
<path d="M277.712 28.2137C275.895 28.2137 274.357 27.5843 273.098 26.3256C271.839 25.0669 271.21 23.529 271.21 21.7118C271.21 19.8946 271.839 18.3567 273.098 17.098C274.357 15.8393 275.895 15.21 277.712 15.21C279.529 15.21 281.067 15.8393 282.326 17.098C283.584 18.3567 284.214 19.8946 284.214 21.7118C284.214 22.4454 284.097 23.1372 283.864 23.7874C283.63 24.4376 283.313 25.0127 282.913 25.5129L288.515 31.1145C288.698 31.2979 288.79 31.5313 288.79 31.8147C288.79 32.0981 288.698 32.3315 288.515 32.5149C288.331 32.6983 288.098 32.79 287.815 32.79C287.531 32.79 287.298 32.6983 287.114 32.5149L281.513 26.9133C281.013 27.3134 280.438 27.6302 279.787 27.8636C279.137 28.097 278.445 28.2137 277.712 28.2137ZM277.712 26.2131C278.962 26.2131 280.025 25.7755 280.9 24.9002C281.775 24.025 282.213 22.9622 282.213 21.7118C282.213 20.4615 281.775 19.3987 280.9 18.5234C280.025 17.6482 278.962 17.2105 277.712 17.2105C276.461 17.2105 275.399 17.6482 274.523 18.5234C273.648 19.3987 273.211 20.4615 273.211 21.7118C273.211 22.9622 273.648 24.025 274.523 24.9002C275.399 25.7755 276.461 26.2131 277.712 26.2131Z" fill="#2A3647"/>
</g>
</svg>
